<svg xmlns="http://www.w3.org/2000/svg" xmlns:xlink="http://www.w3.org/1999/xlink" width="1920" zoomAndPan="magnify" viewBox="0 0 1440 809.999993" height="1080" preserveAspectRatio="xMidYMid meet" version="1.0"><defs><clipPath id="ac7cde9784"><path d="M 187 361 L 1253.828125 361 L 1253.828125 767 L 187 767 Z M 187 361 " clip-rule="nonzero"/></clipPath><clipPath id="bc69d0748a"><path d="M 186 11 L 1253.828125 11 L 1253.828125 435 L 186 435 Z M 186 11 " clip-rule="nonzero"/></clipPath></defs><g clip-path="url(#ac7cde9784)"><path fill="#bc2d2f" d="M 187.207031 766.898438 C 187.207031 766.898438 479.789062 608.597656 706.183594 699.503906 C 981.398438 810.023438 1253.609375 715.007812 1253.609375 715.007812 L 1253.609375 361.226562 L 207.835938 369.761719 Z M 187.207031 766.898438 " fill-opacity="1" fill-rule="nonzero"/></g><g clip-path="url(#bc69d0748a)"><path fill="#0f3ba1" d="M 186.140625 83.042969 C 186.140625 83.042969 394.007812 0.03125 508.1875 12.9375 C 622.371094 25.84375 700.210938 88.402344 843 104.539062 C 988.234375 120.953125 1022.335938 111.8125 1253.597656 25.738281 L 1253.597656 367.628906 C 1253.597656 367.628906 986.410156 503.761719 727.332031 388.964844 C 533.679688 303.144531 187.207031 425.714844 187.207031 425.714844 Z M 186.140625 83.042969 " fill-opacity="1" fill-rule="nonzero"/></g><path fill="#ffffff" d="M 186.140625 83.042969 C 186.140625 83.042969 354.15625 151.953125 413.007812 187.011719 C 474.828125 223.84375 668.828125 370.601562 668.828125 370.601562 C 668.828125 370.601562 472.765625 486.710938 401.136719 550.503906 C 339.234375 605.636719 187.195312 764.765625 187.195312 764.765625 Z M 186.140625 83.042969 " fill-opacity="1" fill-rule="nonzero"/><path fill="#f5d04b" d="M 602.371094 372.054688 L 607.257812 398.453125 L 586.820312 378.132812 L 570.824219 398.453125 L 570.824219 371.164062 L 555.007812 355.699219 L 576.332031 355.523438 L 587.886719 327.078125 L 596.769531 355.523438 L 622.007812 357.300781 Z M 241.390625 641.300781 L 232.5 612.855469 L 220.945312 641.300781 L 199.621094 641.476562 L 215.4375 656.941406 L 215.4375 684.230469 L 231.433594 663.90625 L 251.859375 684.230469 L 246.992188 657.832031 L 266.628906 643.078125 Z M 209.855469 187.628906 L 225.851562 167.304688 L 246.289062 187.628906 L 241.398438 161.226562 L 261.039062 146.472656 L 235.800781 144.695312 L 226.90625 116.253906 L 215.359375 144.695312 L 194.03125 144.871094 L 209.847656 160.339844 Z M 436.78125 355.316406 C 434.351562 342.535156 428.078125 329.34375 416.300781 316.386719 C 415.585938 315.5 414.847656 314.625 414.09375 313.765625 L 453.566406 285.78125 L 459.609375 250.6875 L 425.398438 257.261719 L 396.769531 299.609375 C 394.367188 298.230469 391.894531 296.996094 389.351562 295.90625 C 378.941406 290.558594 367.957031 286.980469 356.398438 285.167969 L 363.871094 241.308594 L 343.335938 212.222656 L 323.792969 241.070312 L 332.363281 285.484375 C 330.03125 285.925781 327.730469 286.507812 325.46875 287.226562 C 318.671875 289.488281 312.328125 292.652344 306.433594 296.71875 L 279.574219 258.8125 L 244.492188 252.761719 L 251.066406 286.988281 L 288.691406 312.4375 C 285.613281 315.953125 282.816406 319.679688 280.308594 323.621094 C 278.027344 326.546875 276.03125 329.65625 274.324219 332.949219 C 271.117188 339.355469 268.867188 346.078125 267.574219 353.125 L 221.777344 345.320312 L 192.695312 365.855469 L 221.53125 385.402344 L 266.121094 376.800781 C 266.527344 383.644531 267.730469 390.347656 269.734375 396.90625 C 271.742188 403.464844 274.488281 409.695312 277.980469 415.59375 L 240.667969 442.042969 L 234.628906 477.128906 L 268.835938 470.558594 L 293.445312 434.15625 C 301.492188 441.199219 310.488281 446.679688 320.4375 450.597656 C 324.199219 452.117188 328.042969 453.371094 331.972656 454.363281 L 323.792969 502.390625 L 344.320312 531.476562 L 363.867188 502.628906 L 354.988281 456.644531 C 364.9375 456.09375 374.445312 453.75 383.507812 449.605469 C 386.199219 448.851562 388.808594 447.882812 391.335938 446.703125 C 398.003906 443.007812 403.910156 438.351562 409.050781 432.722656 L 409.179688 432.609375 L 439.726562 475.71875 L 474.804688 481.761719 L 468.234375 447.539062 L 423.34375 417.167969 C 427.660156 411.664062 431.085938 405.648438 433.625 399.128906 C 435.070312 394.441406 435.890625 389.652344 436.089844 384.753906 C 436.695312 382.105469 437.15625 379.433594 437.480469 376.742188 L 488.34375 385.410156 L 517.425781 364.871094 L 488.578125 345.316406 Z M 436.78125 355.316406 " fill-opacity="1" fill-rule="nonzero"/></svg>